<svg width="40" height="40" viewBox="0 0 40 40" fill="none" xmlns="http://www.w3.org/2000/svg">
<path d="M14.9999 35C14.9999 35.8333 15.6666 36.6666 16.6666 36.6666H23.3333C24.3333 36.6666 24.9999 35.8333 24.9999 35V33.3333H14.9999V35ZM19.9999 3.33331C13.4999 3.33331 8.33325 8.49998 8.33325 15C8.33325 19 10.3333 22.5 13.3333 24.5V28.3333C13.3333 29.1666 13.9999 30 14.9999 30H24.9999C25.9999 30 26.6666 29.1666 26.6666 28.3333V24.5C29.6666 22.3333 31.6666 18.8333 31.6666 15C31.6666 8.49998 26.4999 3.33331 19.9999 3.33331Z" fill="white"/>
</svg>
