<svg width="40" height="40" viewBox="0 0 40 40" fill="none" xmlns="http://www.w3.org/2000/svg">
<path d="M15 35C15 35.9166 15.75 36.6666 16.6666 36.6666H23.3333C24.25 36.6666 25 35.9166 25 35V33.3333H15V35ZM20 3.33331C13.5666 3.33331 8.33331 8.56665 8.33331 15C8.33331 18.9666 10.3166 22.45 13.3333 24.5666V28.3333C13.3333 29.25 14.0833 30 15 30H25C25.9166 30 26.6666 29.25 26.6666 28.3333V24.5666C29.6833 22.45 31.6666 18.9666 31.6666 15C31.6666 8.56665 26.4333 3.33331 20 3.33331ZM23.3333 22.8333V26.6666H16.6666V22.8333C14.1333 21.05 11.6666 19.2166 11.6666 15C11.6666 10.4 15.4 6.66665 20 6.66665C24.6 6.66665 28.3333 10.4 28.3333 15C28.3333 19.15 25.8166 21.0833 23.3333 22.8333Z" fill="white"/>
</svg>
