<svg width="40" height="40" viewBox="0 0 40 40" fill="none" xmlns="http://www.w3.org/2000/svg">
<path d="M10.4727 7.83562L7.2 4.56621L4.63636 7.14155L7.89091 10.411L10.4727 7.83562ZM5.45455 18.1735H0V21.8265H5.45455V18.1735ZM21.8182 0H18.1818V5.38813H21.8182V0V0ZM35.3636 7.14155L32.8 4.56621L29.5455 7.83562L32.1091 10.411L35.3636 7.14155ZM29.5273 32.1644L32.7818 35.4521L35.3455 32.8767L32.0727 29.6073L29.5273 32.1644ZM34.5455 18.1735V21.8265H40V18.1735H34.5455ZM20 9.04109C13.9818 9.04109 9.09091 13.9543 9.09091 20C9.09091 26.0457 13.9818 30.9589 20 30.9589C26.0182 30.9589 30.9091 26.0457 30.9091 20C30.9091 13.9543 26.0182 9.04109 20 9.04109ZM18.1818 40H21.8182V34.6119H18.1818V40ZM4.63636 32.8584L7.2 35.4338L10.4545 32.1461L7.89091 29.5708L4.63636 32.8584Z" fill="white"/>
</svg>
